<svg width="1440" height="848" viewBox="0 0 1440 848" fill="none" xmlns="http://www.w3.org/2000/svg">
<path d="M664.549 776.78C648.083 776.78 632.447 767.046 625.706 750.898C598.09 684.69 583.172 606.181 581.377 517.557C581.097 503.696 581.131 489.656 581.478 475.437C557.845 472.376 536.197 460.522 518.284 440.685C515.132 437.197 512.092 433.452 509.153 429.46C509.064 429.763 508.963 430.076 508.873 430.379C494.998 475.661 478.655 512.298 460.305 539.29C425.78 590.055 387.61 600.72 361.677 600.72C332.693 600.72 307.5 587.835 290.743 564.42C265.46 529.096 259.078 469.673 271.248 382.742C279.807 321.615 295.465 262.584 303.911 237.824C311.404 215.844 335.307 204.092 357.291 211.594C379.276 219.085 391.031 242.982 383.527 264.961C376.831 284.586 360.6 344.637 353.152 404.968C349.159 437.321 348.329 464.324 350.696 485.227C353.04 505.984 358.099 514.72 359.95 516.48C360.219 516.536 360.768 516.604 361.654 516.604C369.484 516.604 380.083 507.633 390.717 492C404.132 472.275 417.166 442.445 428.416 405.742C449.369 337.348 458.678 264.266 458.678 248.028C458.678 224.804 477.511 205.976 500.741 205.976C523.971 205.976 542.803 224.804 542.803 248.028C542.803 271.253 548.299 313.227 560.346 346.577C568.288 368.556 578.214 384.357 587.143 389.93C590.956 354.124 596.598 317.465 604.035 280.179C631.886 140.564 684.324 3.83217 728.73 -44.9263C741.54 -58.9887 761.09 -63.721 778.532 -56.9589C802.469 -47.6962 810.836 -22.8011 815.861 0.333401C819.821 18.5449 822.087 39.3357 822.087 57.4015C822.087 161.153 811.734 243.285 790.422 308.483C760.754 399.26 713.397 443.085 666.074 462.519C662.014 561.639 674.532 649.546 703.314 718.546C712.253 739.987 702.125 764.601 680.678 773.539C675.384 775.748 669.899 776.791 664.504 776.791L664.549 776.78ZM736.515 119.359C718.523 167.086 700.341 227.596 686.578 296.63C683.056 314.269 679.983 331.718 677.336 348.954C716.538 297.852 732.039 208.42 736.515 119.359Z" fill="url(#paint0_linear_4_1250)"/>
<path d="M827.201 779.023C811.61 779.023 796.635 770.32 789.356 755.372C771.185 718.063 760.585 671.121 757.848 615.836C756.996 598.589 756.895 580.703 757.557 562.222C733.172 552.275 710.099 536.968 689.752 516.626C673.331 500.209 673.331 473.576 689.752 457.158C706.184 440.741 732.813 440.741 749.234 457.158C754.651 462.575 760.305 467.374 766.148 471.535C766.676 468.002 767.225 464.459 767.797 460.893C784.196 359.114 817.51 258.906 854.738 199.393C880.76 157.789 908.062 137.57 938.212 137.57C968.362 137.57 996.292 157.868 1015.77 194.739C1029.36 220.442 1037.48 250.843 1037.48 276.063C1037.48 348.988 1024.11 411.439 997.75 461.711C972.613 509.629 936.361 544.459 892.885 562.469C876.105 569.422 858.753 573.616 841.311 575.163C840.201 634.014 848.131 683.928 864.99 718.557C875.163 739.437 866.47 764.613 845.585 774.772C839.651 777.654 833.381 779.023 827.201 779.023ZM937.73 227.652C930.394 236.366 919.076 253.276 905.807 282.691C887.961 322.265 871.776 372.84 860.245 425.131C855.455 446.83 851.574 468.126 848.602 488.838C852.674 487.772 856.712 486.416 860.705 484.767C918.729 460.735 953.366 382.72 953.366 276.074C953.366 260.521 945.155 239.259 937.741 227.664L937.73 227.652Z" fill="url(#paint1_linear_4_1250)"/>
<path d="M1121.04 569.31C1096.16 569.31 1074.36 557.703 1059.63 536.621C1045.33 516.144 1037.65 486.629 1036.17 446.393C1035.12 418.089 1037.11 384.099 1042.08 345.388C1050.41 280.392 1065.41 216.124 1072.59 196.545C1080.59 174.745 1104.76 163.542 1126.56 171.538C1148.38 179.533 1159.57 203.688 1151.58 225.499C1148.02 235.188 1133.34 293.658 1125.19 358.677C1115.23 438.218 1121.86 471.086 1126.03 482.872C1131.44 478.678 1139.33 468.473 1147.6 449.544C1160.87 419.199 1169.41 380.567 1175.65 352.352C1176.76 347.34 1177.79 342.674 1178.75 338.436C1183.95 315.795 1206.5 301.654 1229.15 306.835C1251.8 312.027 1265.94 334.578 1260.76 357.219C1259.83 361.256 1258.85 365.708 1257.8 370.485C1250.81 402.086 1241.25 445.35 1224.69 483.22C1214.33 506.904 1202.7 525.149 1189.14 539.009C1164.64 564.039 1138.6 569.298 1121.05 569.298L1121.04 569.31Z" fill="url(#paint2_linear_4_1250)"/>
<path d="M1250.08 790.226C1235.57 790.226 1221.46 782.712 1213.65 769.267C1157.69 672.793 1142.94 522.951 1173.19 358.184C1201.88 201.872 1265.62 61.9545 1343.67 -16.0838C1360.09 -32.5011 1386.73 -32.5011 1403.15 -16.0838C1419.57 0.344767 1419.57 26.9668 1403.15 43.3841C1337.69 108.829 1281.27 235.267 1255.92 373.356C1229.63 516.593 1241.03 648.817 1286.41 727.068C1298.06 747.164 1291.22 772.889 1271.12 784.54C1264.48 788.387 1257.23 790.226 1250.06 790.226H1250.08Z" fill="url(#paint3_linear_4_1250)"/>
<path d="M1311.77 605.688C1288.58 605.688 1266.29 603.961 1246 600.53C1210.1 594.474 1184.1 583.596 1168.7 568.2C1156.68 556.178 1153.08 538.09 1159.58 522.368C1165.48 508.115 1178.65 498.359 1193.74 496.665C1198.64 494.322 1212.5 485.406 1234.57 463.741C1256.89 441.829 1280.8 413.57 1301.91 384.155C1352.71 313.372 1381.84 245.348 1381.84 197.543C1381.84 174.319 1400.67 155.49 1423.9 155.49C1447.13 155.49 1465.97 174.319 1465.97 197.543C1465.97 291.236 1400.64 392.723 1361.71 444.879C1340.75 472.948 1317.94 499.446 1296.08 521.213C1312.78 521.919 1330.49 521.504 1347.93 519.923C1415.51 513.812 1472.83 491.742 1505.2 459.379C1521.62 442.961 1548.26 442.961 1564.68 459.379C1581.11 475.796 1581.11 502.429 1564.68 518.847C1499.62 583.899 1401.11 600.305 1348.19 604.286C1335.91 605.217 1323.72 605.677 1311.77 605.677V605.688Z" fill="url(#paint4_linear_4_1250)"/>
<path d="M-21.473 847.989C-31.4109 847.989 -40.3057 846.609 -48.0564 844.535C-68.4146 839.085 -86.6865 827.075 -100.876 809.816C-113.281 794.733 -122.569 775.883 -128.502 753.769C-142.254 702.453 -136.971 637.356 -113.629 570.465C-87.7409 496.295 -41.1021 424.144 21.2288 361.828C37.65 345.411 64.2895 345.411 80.7107 361.828C97.1319 378.245 97.1319 404.879 80.7107 421.296C27.2746 474.719 -12.466 535.881 -34.2038 598.174C-51.7915 648.548 -56.5474 697.329 -47.2488 731.991C-42.6051 749.317 -34.7647 761.013 -26.2849 763.289C-15.5281 766.171 8.36334 758.209 40.2971 726.283C136.48 630.123 188.379 411.573 188.379 254.757C188.379 192.71 177.129 139.32 156.703 104.422C146.093 86.2888 128.09 64.6794 102.572 64.6794C55.4621 64.6794 26.8596 133.612 26.8596 163.923C26.8596 187.148 8.02682 205.976 -15.2028 205.976C-38.4325 205.976 -57.2653 187.148 -57.2653 163.923C-57.2653 128.274 -42.8519 85.0328 -19.6559 51.0656C11.3806 5.61522 54.789 -19.4257 102.572 -19.4257C153.596 -19.4257 198.598 9.47282 229.309 61.9431C257.564 110.231 272.504 176.898 272.504 254.757C272.504 340.6 258.113 441.077 233.01 530.431C211.25 607.908 170.466 715.103 99.7902 785.762C51.1549 834.386 9.6981 848 -21.473 848V847.989Z" fill="url(#paint5_linear_4_1250)"/>
<path d="M229.343 766.687C212.865 766.687 197.229 756.954 190.499 740.794C181.56 719.353 191.7 694.738 213.146 685.801C261.848 665.515 438.802 627.152 614.87 604.555C780.316 583.316 1005.02 567.56 1136 613.134C1157.94 620.771 1169.53 644.735 1161.89 666.67C1154.26 688.604 1130.29 700.2 1108.35 692.563C1018.22 661.197 846.774 659.571 625.582 687.965C436.795 712.199 277.799 749.979 245.506 763.435C240.223 765.633 234.738 766.676 229.343 766.676V766.687Z" fill="url(#paint6_linear_4_1250)"/>
<path d="M1148.52 136.449C1173.3 136.449 1193.39 116.366 1193.39 91.593C1193.39 66.8197 1173.3 46.7369 1148.52 46.7369C1123.75 46.7369 1103.66 66.8197 1103.66 91.593C1103.66 116.366 1123.75 136.449 1148.52 136.449Z" fill="url(#paint7_linear_4_1250)"/>
<defs>
<linearGradient id="paint0_linear_4_1250" x1="543.68" y1="-60" x2="543.68" y2="776.791" gradientUnits="userSpaceOnUse">
<stop stop-color="#1A1A1A"/>
<stop offset="1" stop-color="#353535" stop-opacity="0"/>
</linearGradient>
<linearGradient id="paint1_linear_4_1250" x1="857.458" y1="137.57" x2="857.458" y2="779.023" gradientUnits="userSpaceOnUse">
<stop stop-color="#1A1A1A"/>
<stop offset="1" stop-color="#353535" stop-opacity="0"/>
</linearGradient>
<linearGradient id="paint2_linear_4_1250" x1="1148.86" y1="168.956" x2="1148.86" y2="569.309" gradientUnits="userSpaceOnUse">
<stop stop-color="#1A1A1A"/>
<stop offset="1" stop-color="#353535" stop-opacity="0"/>
</linearGradient>
<linearGradient id="paint3_linear_4_1250" x1="1286.63" y1="-28.3967" x2="1286.63" y2="790.226" gradientUnits="userSpaceOnUse">
<stop stop-color="#1A1A1A"/>
<stop offset="1" stop-color="#353535" stop-opacity="0"/>
</linearGradient>
<linearGradient id="paint4_linear_4_1250" x1="1366.69" y1="155.49" x2="1366.69" y2="605.688" gradientUnits="userSpaceOnUse">
<stop stop-color="#1A1A1A"/>
<stop offset="1" stop-color="#353535" stop-opacity="0"/>
</linearGradient>
<linearGradient id="paint5_linear_4_1250" x1="68.2521" y1="-19.4257" x2="68.2521" y2="848" gradientUnits="userSpaceOnUse">
<stop stop-color="#1A1A1A"/>
<stop offset="1" stop-color="#353535" stop-opacity="0"/>
</linearGradient>
<linearGradient id="paint6_linear_4_1250" x1="675.747" y1="583.719" x2="675.747" y2="766.687" gradientUnits="userSpaceOnUse">
<stop stop-color="#1A1A1A"/>
<stop offset="1" stop-color="#353535" stop-opacity="0"/>
</linearGradient>
<linearGradient id="paint7_linear_4_1250" x1="1148.52" y1="46.7369" x2="1148.52" y2="136.449" gradientUnits="userSpaceOnUse">
<stop stop-color="#1A1A1A"/>
<stop offset="1" stop-color="#353535" stop-opacity="0"/>
</linearGradient>
</defs>
</svg>
