<svg width="645" height="342" viewBox="0 0 645 342" fill="none" xmlns="http://www.w3.org/2000/svg">
<path d="M301.433 315.175C295.233 315.175 289.345 311.509 286.807 305.426C276.409 280.489 270.792 250.918 270.116 217.538C270.01 212.317 270.023 207.029 270.154 201.673C261.255 200.52 253.104 196.056 246.359 188.584C245.172 187.27 244.028 185.86 242.921 184.356C242.887 184.47 242.849 184.588 242.816 184.702C237.591 201.758 231.438 215.557 224.528 225.724C211.528 244.845 197.156 248.861 187.391 248.861C176.478 248.861 166.992 244.008 160.683 235.189C151.163 221.884 148.76 199.502 153.342 166.76C156.565 143.736 162.461 121.502 165.641 112.176C168.462 103.897 177.462 99.4707 185.74 102.296C194.018 105.118 198.444 114.119 195.619 122.397C193.097 129.789 186.986 152.407 184.182 175.131C182.678 187.317 182.366 197.488 183.257 205.361C184.139 213.179 186.044 216.469 186.741 217.132C186.842 217.154 187.049 217.179 187.383 217.179C190.331 217.179 194.322 213.8 198.326 207.912C203.377 200.482 208.285 189.247 212.521 175.423C220.41 149.662 223.916 122.136 223.916 116.019C223.916 107.272 231.007 100.18 239.754 100.18C248.5 100.18 255.591 107.272 255.591 116.019C255.591 124.767 257.661 140.577 262.197 153.138C265.187 161.417 268.925 167.368 272.287 169.467C273.723 155.981 275.847 142.173 278.647 128.129C289.134 75.543 308.878 24.0425 325.599 5.67753C330.422 0.380914 337.784 -1.40152 344.351 1.14542C353.364 4.63426 356.515 14.011 358.407 22.7247C359.898 29.5841 360.751 37.415 360.751 44.2195C360.751 83.2979 356.852 114.233 348.828 138.79C337.657 172.981 319.826 189.488 302.007 196.808C300.478 234.142 305.191 267.252 316.029 293.241C319.395 301.317 315.581 310.588 307.506 313.954C305.512 314.786 303.447 315.179 301.416 315.179L301.433 315.175ZM328.53 67.5559C321.756 85.5323 314.91 108.324 309.727 134.325C308.401 140.969 307.244 147.542 306.247 154.033C321.008 134.786 326.845 101.101 328.53 67.5559Z" fill="white"/>
<path d="M362.676 316.02C356.806 316.02 351.168 312.742 348.427 307.112C341.585 293.059 337.593 275.378 336.563 254.555C336.242 248.059 336.204 241.322 336.453 234.361C327.271 230.615 318.584 224.849 310.922 217.187C304.739 211.004 304.739 200.972 310.922 194.789C317.11 188.605 327.136 188.605 333.319 194.789C335.359 196.829 337.488 198.637 339.688 200.204C339.887 198.873 340.094 197.538 340.309 196.195C346.484 157.86 359.027 120.117 373.045 97.701C382.843 82.0308 393.123 74.4153 404.476 74.4153C415.828 74.4153 426.345 82.0603 433.681 95.9481C438.795 105.629 441.853 117.08 441.853 126.579C441.853 154.046 436.819 177.568 426.894 196.504C417.429 214.552 403.779 227.671 387.409 234.454C381.091 237.073 374.557 238.653 367.989 239.235C367.571 261.402 370.557 280.202 376.905 293.245C380.736 301.11 377.463 310.592 369.599 314.419C367.364 315.504 365.004 316.02 362.676 316.02ZM404.294 108.345C401.532 111.627 397.271 117.996 392.274 129.075C385.555 143.981 379.46 163.03 375.119 182.726C373.315 190.899 371.854 198.92 370.735 206.721C372.268 206.32 373.788 205.809 375.292 205.188C397.14 196.136 410.182 166.751 410.182 126.583C410.182 120.725 407.09 112.716 404.298 108.349L404.294 108.345Z" fill="white"/>
<path d="M473.318 237.031C463.95 237.031 455.74 232.659 450.194 224.718C444.809 217.006 441.916 205.889 441.359 190.734C440.966 180.073 441.714 167.271 443.585 152.69C446.723 128.209 452.369 104.003 455.072 96.6281C458.084 88.4171 467.185 84.1976 475.395 87.2091C483.61 90.2207 487.825 99.3187 484.814 107.534C483.475 111.183 477.946 133.206 474.88 157.696C471.13 187.655 473.626 200.035 475.197 204.474C477.233 202.894 480.202 199.051 483.319 191.921C488.315 180.491 491.529 165.94 493.877 155.313C494.295 153.425 494.684 151.668 495.047 150.072C497.003 141.544 505.496 136.218 514.023 138.169C522.55 140.125 527.876 148.619 525.925 157.146C525.574 158.667 525.207 160.344 524.81 162.143C522.178 174.046 518.58 190.341 512.342 204.605C508.444 213.525 504.064 220.397 498.958 225.618C489.734 235.046 479.927 237.026 473.322 237.026L473.318 237.031Z" fill="white"/>
<path d="M521.904 320.239C516.439 320.239 511.126 317.409 508.186 312.345C487.116 276.008 481.562 219.57 492.953 157.51C503.756 98.6345 527.754 45.9344 557.144 16.5411C563.328 10.3575 573.358 10.3575 579.541 16.5411C585.724 22.729 585.724 32.7562 579.541 38.9398C554.893 63.5898 533.649 111.213 524.105 163.224C514.205 217.175 518.496 266.977 535.584 296.451C539.972 304.02 537.396 313.709 529.827 318.098C527.327 319.546 524.594 320.239 521.896 320.239H521.904Z" fill="white"/>
<path d="M545.133 250.733C536.399 250.733 528.007 250.082 520.366 248.79C506.851 246.509 497.062 242.412 491.263 236.613C486.735 232.085 485.38 225.272 487.829 219.35C490.051 213.982 495.009 210.307 500.69 209.669C502.535 208.786 507.755 205.428 516.063 197.268C524.467 189.015 533.472 178.371 541.42 167.292C560.548 140.631 571.516 115.01 571.516 97.0041C571.516 88.2566 578.608 81.1649 587.354 81.1649C596.101 81.1649 603.192 88.2566 603.192 97.0041C603.192 132.294 578.595 170.519 563.935 190.164C556.046 200.736 547.456 210.717 539.224 218.915C545.513 219.181 552.182 219.025 558.749 218.429C584.195 216.127 605.777 207.815 617.966 195.625C624.149 189.441 634.179 189.441 640.363 195.625C646.546 201.809 646.546 211.84 640.363 218.024C615.862 242.526 578.772 248.705 558.846 250.205C554.221 250.555 549.631 250.728 545.133 250.728V250.733Z" fill="white"/>
<path d="M43.1231 341.996C39.3812 341.996 36.032 341.476 33.1136 340.695C25.4481 338.642 18.5681 334.118 13.2255 327.618C8.55436 321.937 5.05736 314.837 2.82316 306.508C-2.35476 287.18 -0.365526 262.661 8.42343 237.466C18.1711 209.53 35.7321 182.354 59.2017 158.882C65.3848 152.699 75.4155 152.699 81.5986 158.882C87.7817 165.066 87.7817 175.097 81.5986 181.281C61.4782 201.403 46.5146 224.44 38.3295 247.903C31.7072 266.876 29.9165 285.249 33.4177 298.305C35.1662 304.831 38.1184 309.236 41.3113 310.094C45.3616 311.179 54.3575 308.18 66.3816 296.155C102.598 259.936 122.139 177.619 122.139 118.554C122.139 95.1836 117.903 75.0742 110.212 61.9298C106.217 55.1 99.4384 46.9607 89.8301 46.9607C72.0917 46.9607 61.3219 72.9243 61.3219 84.3412C61.3219 93.0886 54.2308 100.18 45.484 100.18C36.7373 100.18 29.6462 93.0886 29.6462 84.3412C29.6462 70.9138 35.0733 54.6269 43.8073 41.8331C55.4936 24.7141 71.8383 15.2824 89.8301 15.2824C109.042 15.2824 125.987 26.1671 137.551 45.9301C148.189 64.1177 153.815 89.2281 153.815 118.554C153.815 150.887 148.396 188.732 138.944 222.387C130.751 251.569 115.395 291.944 88.7827 318.558C70.4699 336.872 54.8601 342 43.1231 342V341.996Z" fill="white"/>
<path d="M137.563 311.373C131.359 311.373 125.472 307.707 122.938 301.621C119.572 293.545 123.39 284.274 131.465 280.907C149.803 273.267 216.432 258.817 282.727 250.306C345.022 242.306 429.631 236.372 478.948 253.537C487.209 256.414 491.576 265.44 488.699 273.702C485.823 281.963 476.798 286.331 468.537 283.454C434.602 271.64 370.046 271.028 286.76 281.723C215.676 290.85 155.809 305.08 143.649 310.149C141.66 310.976 139.595 311.369 137.563 311.369V311.373Z" fill="white"/>
<path d="M483.665 73.9929C492.995 73.9929 500.559 66.4287 500.559 57.0978C500.559 47.7669 492.995 40.2027 483.665 40.2027C474.335 40.2027 466.771 47.7669 466.771 57.0978C466.771 66.4287 474.335 73.9929 483.665 73.9929Z" fill="white"/>
</svg>
